<svg width="17" height="12" viewBox="0 0 17 12" fill="none" xmlns="http://www.w3.org/2000/svg">
<path d="M0 0.7C0 0.313401 0.313401 0 0.7 0H1.56738C1.83252 0 2.0749 0.149802 2.19348 0.38695L4.3739 4.7478C4.63187 5.26374 5.36813 5.26374 5.6261 4.7478L8 0H10H13.3C13.6866 0 14 0.313401 14 0.7V1.25V3V4.3C14 4.6866 13.6866 5 13.3 5H12.5H11.0455C10.6589 5 10.3455 4.6866 10.3455 4.3V3H11.5C11.7761 3 12 2.77614 12 2.5V2.5C12 2.22386 11.7761 2 11.5 2H10.4823C10.3927 2 10.3048 2.02405 10.2278 2.06962V2.06962C9.90045 2.26319 9.90045 2.73681 10.2278 2.93038L10.3455 3V4.3C10.3455 4.6866 10.6589 5 11.0455 5H12.5H10.4739C10.1877 5 9.93029 5.17427 9.82399 5.44003L8 10V0L5.5072 8.30934C5.32505 8.91651 4.49411 8.98823 4.21062 8.42124L3.3261 6.6522C2.99576 5.99152 2 6.22659 2 6.96525V9.3C2 9.6866 1.6866 10 1.3 10H0.7C0.313401 10 0 9.6866 0 9.3V0.7Z" fill="#07E1FF"/>
<path d="M11.7721 5.24999C12.0086 5.24999 12.229 5.36937 12.3583 5.56737L14.545 8.91739C14.8489 9.383 14.5148 10 13.9588 10L13.1307 10C12.8943 10 12.6738 9.88063 12.5446 9.68262L10.3579 6.3326C10.0539 5.86699 10.388 5.24997 10.944 5.24998L11.7721 5.24999Z" fill="#07E1FF"/>
</svg>
